<svg xmlns="http://www.w3.org/2000/svg" viewBox="0 0 1024 1024" width="1024" height="1024" role="img" aria-label="Sloe — serif S monogram, cream on plum">
  <!-- Inverse cut: Newsreader Medium (500) 'S' in cream on the brand plum gradient field. -->
  <defs>
    <radialGradient id="sInvBg" cx="32%" cy="26%" r="92%">
      <stop offset="0%" stop-color="#6A4B7A"/>
      <stop offset="58%" stop-color="#3B2A4D"/>
      <stop offset="100%" stop-color="#241733"/>
    </radialGradient>
  </defs>
  <rect width="1024" height="1024" fill="url(#sInvBg)"/>
  <g transform="translate(276.420 786.827) scale(0.41696 -0.41696)">
    <path fill="#F6F5F2" d="M933 1292 783 1324 902 1417H942L998 958L929 950L760 1258L810 1198Q756 1236 698.5 1252.5Q641 1269 575 1269Q445 1269 376.0 1215.0Q307 1161 307 1064Q307 1001 335.0 958.5Q363 916 412.0 886.5Q461 857 523.5 835.5Q586 814 654 792Q723 770 791.5 742.0Q860 714 917.0 671.0Q974 628 1008.5 561.0Q1043 494 1043 395Q1043 257 977.0 164.5Q911 72 794.5 25.0Q678 -22 524 -22Q420 -22 338.0 -9.5Q256 3 169 37L87 404H163L407 39L213 168Q294 126 358.5 107.5Q423 89 501 89Q614 89 691.0 115.0Q768 141 807.5 195.0Q847 249 847 331Q847 404 812.5 451.5Q778 499 720.5 529.5Q663 560 594.5 582.0Q526 604 459 627Q391 650 330.5 679.0Q270 708 223.5 749.5Q177 791 150.5 852.0Q124 913 124 1000Q124 1116 180.5 1200.0Q237 1284 343.0 1329.0Q449 1374 594 1374Q688 1374 768.5 1354.5Q849 1335 933 1292Z"/>
  </g>
</svg>
