<svg xmlns="http://www.w3.org/2000/svg" viewBox="0 0 1014 534" width="1014" height="534" role="img" aria-label="Sloe wordmark lockup — Bloom Berry glyph and sloe in Newsreader">
  <defs>
    <radialGradient id="wmBerry" cx="38%" cy="34%" r="78%">
      <stop offset="0%" stop-color="#7E5C92"/>
      <stop offset="48%" stop-color="#553D6C"/>
      <stop offset="100%" stop-color="#2C1E40"/>
    </radialGradient>
    <radialGradient id="wmBloom" cx="50%" cy="50%" r="50%">
      <stop offset="0%" stop-color="#EDEAF1" stop-opacity="0.92"/>
      <stop offset="44%" stop-color="#C9C2D6" stop-opacity="0.58"/>
      <stop offset="80%" stop-color="#C9C2D6" stop-opacity="0.14"/>
      <stop offset="100%" stop-color="#C9C2D6" stop-opacity="0"/>
    </radialGradient>
  </defs>
  <rect width="1014" height="534" fill="#FBF8F3"/>
  <circle cx="242.6" cy="266.9" r="80.9" fill="url(#wmBerry)"/>
  <ellipse cx="218.3" cy="242.7" rx="40.4" ry="34.8" fill="url(#wmBloom)"/>
  <g fill="#3B2A4D">
    <path transform="translate(391.337 322.312) scale(0.13 -0.13)" d="M428 907Q494 907 547.5 895.5Q601 884 666 856L682 614H617L509 857L595 768Q552 795 512.0 808.0Q472 821 430 821Q348 821 303.5 790.0Q259 759 259 703Q259 655 285.0 626.0Q311 597 359.5 576.0Q408 555 472 533Q520 517 563.5 495.0Q607 473 641.0 441.5Q675 410 694.5 365.5Q714 321 714 258Q714 167 668.5 104.5Q623 42 542.0 10.5Q461 -21 354 -21Q287 -21 227.5 -11.0Q168 -1 118 19L77 272H143L281 16L152 100Q189 84 218.5 76.0Q248 68 275.0 65.0Q302 62 328 62Q430 62 486.5 98.5Q543 135 543 207Q543 248 523.5 274.5Q504 301 470.0 320.0Q436 339 393.0 354.5Q350 370 303 387Q241 410 195.0 443.0Q149 476 123.5 526.0Q98 576 98 649Q98 732 140.5 789.0Q183 846 258.0 876.5Q333 907 428 907Z"/>
    <path transform="translate(502.357 322.312) scale(0.13 -0.13)" d="M379 96 525 48V0H36V48L181 96V1206Q167 1222 144.0 1238.0Q121 1254 89.0 1271.0Q57 1288 18 1304V1342L363 1432H393L379 1247Z"/>
    <path transform="translate(582.957 322.312) scale(0.13 -0.13)" d="M535 77Q608 77 663.0 112.0Q718 147 749.0 221.0Q780 295 780 413Q780 543 750.0 630.5Q720 718 665.0 762.5Q610 807 531 807Q459 807 404.0 772.5Q349 738 318.0 663.5Q287 589 287 471Q287 343 316.5 255.0Q346 167 402.0 122.0Q458 77 535 77ZM528 -22Q391 -22 288.5 35.5Q186 93 130.0 195.5Q74 298 74 433Q74 572 133.5 679.0Q193 786 297.5 846.5Q402 907 539 907Q677 907 778.5 849.5Q880 792 936.5 690.0Q993 588 993 452Q993 313 933.5 206.0Q874 99 769.5 38.5Q665 -22 528 -22Z"/>
    <path transform="translate(729.467 322.312) scale(0.13 -0.13)" d="M503 907Q616 907 694.5 859.0Q773 811 817.5 719.0Q862 627 871 495H226V579L751 600L667 556Q662 638 641.0 694.5Q620 751 582.0 780.5Q544 810 487 810Q421 810 371.5 775.5Q322 741 294.5 669.5Q267 598 267 488Q267 373 308.5 293.5Q350 214 427.0 172.0Q504 130 609 130Q653 130 693.5 139.5Q734 149 773.0 167.5Q812 186 849 212L872 165Q817 105 758.5 63.0Q700 21 637.0 -0.5Q574 -22 505 -22Q377 -22 280.0 35.5Q183 93 128.5 195.0Q74 297 74 429Q74 563 125.5 671.5Q177 780 273.0 843.5Q369 907 503 907Z"/>
  </g>
</svg>
